<svg id="Capa_1" data-name="Capa 1" xmlns="http://www.w3.org/2000/svg" viewBox="0 0 27.51 24.87"><defs><style>.cls-1{fill:none;stroke:#000;stroke-linecap:round;stroke-linejoin:round;stroke-width:2px;}</style></defs><title>shopping-cart</title><path d="M11.06,24.2a1.91,1.91,0,1,1-1.91-1.91,1.9,1.9,0,0,1,1.91,1.91Zm0,0" transform="translate(0.44 -1.24)"/><path d="M23.48,24.2a1.91,1.91,0,1,1-1.91-1.91,1.91,1.91,0,0,1,1.91,1.91Zm0,0" transform="translate(0.44 -1.24)"/><path class="cls-1" d="M4.65,7H26.07L22.92,18a1.91,1.91,0,0,1-1.84,1.39H9.64A1.93,1.93,0,0,1,7.8,18L3.49,2.93a1,1,0,0,0-.92-.69h-2" transform="translate(0.44 -1.24)"/></svg>